<svg height="400pt" viewBox="-4 0 400 400" width="400pt" xmlns="http://www.w3.org/2000/svg"><path d="m311.871094 300.238281h-172.109375c-22.09375 0-40-17.90625-40-40v-172.109375c0-3.023437.34375-6.03125 1.023437-8.976562-18.15625 4.183594-31.019531 20.34375-31.023437 38.976562v172.109375c0 22.09375 17.90625 40 40 40h172.109375c18.632812-.003906 34.792968-12.867187 38.976562-31.023437-2.945312.679687-5.957031 1.023437-8.976562 1.023437zm0 0" fill="none"/><path d="m260.132812 278.5h-128.632812c-5.523438 0-10-4.476562-10-10v-128.632812c0-5.523438 4.476562-10 10-10h128.632812c5.523438 0 10 4.476562 10 10v128.632812c0 5.523438-4.476562 10-10 10zm-118.632812-20h108.632812v-108.632812h-108.632812zm0 0" fill="#fff"/><path d="m381.632812 236h-49.816406v-22h24.714844c5.523438 0 10-4.476562 10-10s-4.476562-10-10-10h-24.714844v-22h49.816406c5.523438 0 10-4.476562 10-10s-4.476562-10-10-10h-49.816406v-22h24.714844c5.523438 0 10-4.476562 10-10s-4.476562-10-10-10h-25.351562c-3.660157-21.109375-20.238282-37.613281-41.363282-41.179688v-25.351562c0-5.523438-4.476562-10-10-10-5.523437 0-10 4.476562-10 10v24.53125h-22v-58c0-5.523438-4.476562-10-10-10-5.523437 0-10 4.476562-10 10v58h-22v-24.53125c0-5.523438-4.476562-10-10-10-5.523437 0-10 4.476562-10 10v24.53125h-22v-58c0-5.523438-4.476562-10-10-10-5.523437 0-10 4.476562-10 10v58h-22v-24.53125c0-5.523438-4.476562-10-10-10-5.523437 0-10 4.476562-10 10v25.351562c-21.125 3.566407-37.707031 20.070313-41.367187 41.179688h-25.347657c-5.523437 0-10 4.476562-10 10s4.476563 10 10 10h24.714844v22h-49.816406c-5.523438 0-10 4.476562-10 10s4.476562 10 10 10h49.816406v22h-24.714844c-5.523437 0-10 4.476562-10 10s4.476563 10 10 10h24.714844v22h-49.816406c-5.523438 0-10 4.476562-10 10s4.476562 10 10 10h49.816406v22h-24.714844c-5.523437 0-10 4.476562-10 10s4.476563 10 10 10h25.347657c3.636719 21.191406 20.191406 37.820312 41.367187 41.546875v25.351563c0 5.523437 4.476563 10 10 10 5.523438 0 10-4.476563 10-10v-24.898438h22v50c0 5.523438 4.476563 10 10 10 5.523438 0 10-4.476562 10-10v-50h22v24.898438c0 5.523437 4.476563 10 10 10 5.523438 0 10-4.476563 10-10v-24.898438h22v50c0 5.523438 4.476563 10 10 10 5.523438 0 10-4.476562 10-10v-50h22v24.898438c0 5.523437 4.476563 10 10 10 5.523438 0 10-4.476563 10-10v-25.351563c21.175782-3.726563 37.730469-20.355469 41.363282-41.546875h25.351562c5.523438 0 10-4.476562 10-10s-4.476562-10-10-10h-24.714844v-22h49.816406c5.523438 0 10-4.476562 10-10s-4.476562-10-10-10zm-99.761718 84h-.878906c-.292969 0-.585938-.042969-.882813-.042969s-.585937.042969-.878906.042969h-40.386719c-.289062 0-.582031-.042969-.878906-.042969-.300782 0-.589844.042969-.878906.042969h-40.390626c-.289062 0-.582031-.042969-.878906-.042969s-.589844.042969-.878906.042969h-40.390625c-.289063 0-.582031-.042969-.878906-.042969s-.589844.042969-.878907.042969h-40.386718c-.292969 0-.585938-.042969-.882813-.042969s-.585937.042969-.878906.042969h-.878906c-16.449219.089844-29.855469-13.171875-29.945313-29.621094v-1.011718c0-.292969.042969-.589844.042969-.890626 0-.296874-.042969-.597656-.042969-.886718v-40.367188c0-.296875.042969-.589844.042969-.890625s-.042969-.601562-.042969-.890625v-40.367187c0-.292969.042969-.589844.042969-.890625 0-.300782-.042969-.597656-.042969-.890625v-40.367188c0-.292969.042969-.589843.042969-.890625 0-.300781-.042969-.597656-.042969-.886718v-40.371094c0-.292969.042969-.589844.042969-.886719 0-.300781-.042969-.601563-.042969-.890625v-.871094c-.015625-16.574218 13.371094-30.042968 29.945313-30.128906h.890625c.285156 0 .574218.042969.867187.042969.296875 0 .585938-.042969.871094-.042969h40.40625c.289063 0 .578125.042969.871094.042969.296875 0 .585937-.042969.871093-.042969h40.40625c.289063 0 .578126.042969.871094.042969.292969 0 .582032-.042969.871094-.042969h40.40625c.285156 0 .578125.042969.871094.042969.292968 0 .582031-.042969.871094-.042969h40.40625c.285156 0 .574218.042969.867187.042969.296875 0 .585937-.042969.871094-.042969h.890625c16.574218.085938 29.960937 13.554688 29.945312 30.128906v.871094c0 .292969-.046875.589844-.046875.890625 0 .296875.046875.597656.046875.886719v40.371094c0 .292968-.046875.585937-.046875.886718 0 .300782.046875.601563.046875.890625v40.367188c0 .296875-.046875.589843-.046875.890625 0 .300781.046875.601562.046875.890625v40.367187c0 .292969-.046875.589844-.046875.890625s.046875.597657.046875.890625v40.367188c0 .292968-.046875.589844-.046875.886718 0 .300782.046875.601563.046875.890626v.871093c-.011718 16.449219-13.355468 29.769531-29.800781 29.761719zm0 0" fill="#fff"/></svg>