<svg xmlns="http://www.w3.org/2000/svg" viewBox="0 0 16 16" id="database"><path fill="#231f20" d="M12.223 1.504A3.253 3.253 0 0 0 9.227 3.5H.912A.913.913 0 0 0 0 4.41v2.68a.9.9 0 0 0 .293.66.9.9 0 0 0-.293.66v2.68a.9.9 0 0 0 .293.66.9.9 0 0 0-.293.66v2.68c0 .502.41.91.912.91H12.59c.502 0 .91-.408.91-.91v-2.68a.9.9 0 0 0-.293-.66.9.9 0 0 0 .293-.66V8.41a.895.895 0 0 0-.234-.594 3.243 3.243 0 0 0 2.207-3.062 3.254 3.254 0 0 0-3.25-3.25zm0 .5a2.752 2.752 0 0 1 2.75 2.75A2.75 2.75 0 0 1 12.262 7.5h-.078a2.75 2.75 0 0 1-2.711-2.746 2.752 2.752 0 0 1 2.75-2.75zm1.318 1.514L11.598 5.46l-.696-.695-.353.353.87.873a.254.254 0 0 0 .354 0l2.122-2.12-.354-.354ZM.912 4H9.07a3.178 3.178 0 0 0-.097.754A3.24 3.24 0 0 0 10.502 7.5H.912A.412.412 0 0 1 .5 7.09V4.41C.5 4.183.686 4 .912 4zm.838 1.5V6h4v-.5h-4zM.912 8h11.272c.013 0 .025.004.039.004.014 0 .025-.004.039-.004h.328c.227 0 .412.184.412.41v2.68c0 .227-.186.41-.412.41H.912a.412.412 0 0 1-.412-.41V8.41C.5 8.183.686 8 .912 8zM11.27 9.45a.3.3 0 0 0-.3.3.3.3 0 0 0 .3.3.3.3 0 0 0 .3-.3.3.3 0 0 0-.3-.3Zm-9.52.05v.5h4v-.5h-4zM.912 12H12.59a.41.41 0 0 1 .41.41v2.68a.41.41 0 0 1-.41.41H.912a.412.412 0 0 1-.412-.41v-2.68c0-.227.186-.41.412-.41Zm10.332 1.45a.3.3 0 0 0-.3.3.3.3 0 0 0 .3.3.3.3 0 0 0 .3-.3.3.3 0 0 0-.3-.3Zm-9.494.05v.5h4v-.5h-4z"></path></svg>