<svg id="Capa_1" enable-background="new 0 0 512 512" height="512" viewBox="0 0 512 512" width="512" xmlns="http://www.w3.org/2000/svg" xmlns:xlink="http://www.w3.org/1999/xlink"><linearGradient id="SVGID_1_" gradientUnits="userSpaceOnUse" x1="-7.105" x2="535.131" y1="146.972" y2="343.256"><stop offset=".0485" stop-color="#d2deff"/><stop offset=".9993" stop-color="#dcfdee"/></linearGradient><g><path d="m505.626 289.417c-11.826-34.61-38.138-60.16-69.852-72.202-16.43-6.239-27.346-21.856-27.587-39.429-.005-.384-.012-.769-.021-1.154-1.507-64.582-55.488-116.33-120.077-115.221-38.094.654-71.788 19.355-92.905 47.92-18.185 24.599-46.49 39.965-77.08 39.949-.898 0-1.797.009-2.7.029-61.917 1.354-114.567 54.478-115.393 116.403-.879 65.932 52.303 119.654 118.032 119.654 50.947 0 94.349-32.277 110.886-77.497 4.327-11.832 17.152-18.174 29.283-14.772.151.042.303.085.455.127 11.099 3.064 18.458 13.64 17.55 25.119-1.217 15.383.581 31.255 5.798 46.796 20.521 61.135 87.188 94.685 148.493 74.68 62.711-20.465 96.379-88.184 75.118-150.402z" fill="url(#SVGID_1_)"/><path d="m382.658 291.84-25.876-7.368c-2.534-10.33-6.613-20.059-11.982-28.912l13.092-23.516c1.11-1.999.762-4.5-.856-6.118l-17.685-17.685c-1.618-1.618-4.119-1.966-6.118-.856l-23.516 13.092c-7.051-4.276-14.665-7.718-22.689-10.229v-48.905c0-2.913-.641-5.795-1.862-8.438l-20.089-43.2c-3.583-7.717-14.564-7.717-18.147 0l-20.099 43.2c-1.231 2.642-1.862 5.525-1.862 8.438v48.905c-8.024 2.511-15.638 5.952-22.689 10.229l-23.516-13.092c-1.999-1.11-4.5-.762-6.118.856l-17.685 17.685c-1.618 1.618-1.966 4.119-.856 6.118l13.092 23.516c-5.369 8.853-9.448 18.581-11.982 28.912l-25.876 7.368c-2.207.629-3.724 2.641-3.724 4.935v25.007c0 2.293 1.518 4.306 3.724 4.934l25.876 7.368c2.534 10.33 6.613 20.059 11.982 28.912l-13.092 23.516c-1.11 1.999-.762 4.5.856 6.118l17.685 17.685c1.618 1.618 4.119 1.966 6.118.856l23.516-13.092c8.853 5.369 18.581 9.448 28.912 11.982l7.368 25.876c.629 2.206 2.641 3.724 4.934 3.724h25.007c2.293 0 4.306-1.518 4.934-3.724l7.368-25.876c10.33-2.534 20.059-6.613 28.912-11.982l23.516 13.092c1.999 1.11 4.5.762 6.118-.856l17.685-17.685c1.618-1.618 1.966-4.119.856-6.118l-13.092-23.516c5.369-8.853 9.448-18.581 11.982-28.912l25.876-7.368c2.207-.628 3.724-2.641 3.724-4.934v-25.007c.003-2.294-1.515-4.307-3.722-4.935zm-180.283 17.437c0-18.048 8.927-34.002 22.597-43.722v87.444c-13.67-9.719-22.597-25.674-22.597-43.722zm84.654 43.722v-87.443c13.669 9.719 22.596 25.674 22.596 43.722s-8.927 34.002-22.596 43.721z" fill="#2626bc" opacity=".1"/><g fill="#ff7eb8"><path d="m444.633 292.118h-17.244c-3.401 0-6.158-2.757-6.158-6.158v-17.244c0-3.401 2.757-6.158 6.158-6.158h17.244c3.401 0 6.158 2.757 6.158 6.158v17.244c.001 3.401-2.757 6.158-6.158 6.158z"/><path d="m84.611 292.118h-17.244c-3.401 0-6.158-2.757-6.158-6.158v-17.244c0-3.401 2.757-6.158 6.158-6.158h17.244c3.401 0 6.158 2.757 6.158 6.158v17.244c0 3.401-2.757 6.158-6.158 6.158z"/><path d="m264.622 97.327h-17.244c-3.401 0-6.158-2.757-6.158-6.158v-17.245c0-3.401 2.757-6.158 6.158-6.158h17.244c3.401 0 6.158 2.757 6.158 6.158v17.244c0 3.401-2.757 6.159-6.158 6.159z"/><path d="m264.622 97.327h-17.244c-3.401 0-6.158-2.757-6.158-6.158v-17.245c0-3.401 2.757-6.158 6.158-6.158h17.244c3.401 0 6.158 2.757 6.158 6.158v17.244c0 3.401-2.757 6.159-6.158 6.159z"/><ellipse cx="450.792" cy="82.546" rx="15.208" ry="15.208" transform="matrix(.924 -.383 .383 .924 2.726 178.794)"/><circle cx="61.208" cy="82.546" r="15.208"/></g><path d="m382.659 312.84-25.876-7.368c-2.534-10.33-6.613-20.059-11.982-28.912l13.092-23.516c1.11-1.999.762-4.5-.856-6.118l-17.685-17.685c-1.618-1.618-4.119-1.966-6.118-.856l-23.516 13.092c-8.853-5.369-18.581-9.448-28.912-11.982l-7.368-25.876c-.629-2.206-2.641-3.724-4.934-3.724h-25.007c-2.293 0-4.306 1.518-4.934 3.724l-7.368 25.876c-10.33 2.534-20.059 6.613-28.912 11.982l-23.516-13.092c-1.999-1.11-4.5-.762-6.118.856l-17.685 17.685c-1.618 1.618-1.966 4.119-.856 6.118l13.092 23.516c-5.369 8.853-9.448 18.581-11.982 28.912l-25.876 7.368c-2.206.629-3.724 2.641-3.724 4.935v25.007c0 2.293 1.518 4.306 3.724 4.934l25.876 7.368c2.534 10.33 6.613 20.059 11.982 28.912l-13.092 23.516c-1.11 1.999-.762 4.5.856 6.118l17.685 17.685c1.618 1.618 4.119 1.966 6.118.856l23.516-13.092c8.853 5.369 18.581 9.448 28.912 11.982l7.368 25.876c.629 2.206 2.641 3.724 4.934 3.724h25.007c2.293 0 4.306-1.518 4.934-3.724l7.368-25.876c10.33-2.534 20.059-6.613 28.912-11.982l23.516 13.092c1.999 1.11 4.5.762 6.118-.856l17.685-17.685c1.618-1.618 1.966-4.119.856-6.118l-13.092-23.516c5.369-8.853 9.448-18.581 11.982-28.912l25.876-7.368c2.206-.629 3.724-2.641 3.724-4.934v-25.007c0-2.294-1.518-4.307-3.724-4.935zm-126.659 71.063c-29.614 0-53.625-24.011-53.625-53.625s24.011-53.625 53.625-53.625 53.625 24.011 53.625 53.625-24.011 53.625-53.625 53.625z" fill="#9fb0fe"/><path d="m287.029 182.343v191.677c-8.758 6.226-19.468 9.879-31.029 9.879-11.571 0-22.271-3.663-31.029-9.899v-191.657c0-2.913.631-5.795 1.862-8.438l20.099-43.2c3.583-7.717 14.564-7.717 18.147 0l20.089 43.2c1.22 2.643 1.861 5.525 1.861 8.438z" fill="#ff7eb8"/><path d="m256 188.098v195.801c-11.571 0-22.271-3.663-31.029-9.899v-185.902z" fill="#97ffd2"/><path d="m246.929 130.708-20.094 43.192c-1.231 2.645-1.868 5.527-1.868 8.445v12.758c3.574 1.922 7.668 3.013 12.012 3.013 5.016 0 9.694-1.46 13.628-3.978 3.319-2.124 7.588-2.019 10.92.084 3.907 2.466 8.534 3.894 13.5 3.894 4.344 0 8.429-1.091 12.002-3.013v-12.76c0-2.916-.637-5.797-1.867-8.442l-20.086-43.194c-3.582-7.717-14.564-7.717-18.147.001z" fill="#ffc4df"/><path d="m246.929 130.708-10.991 23.644c5.476 4.475 12.453 7.167 20.06 7.167 7.618 0 14.605-2.693 20.07-7.177l-10.991-23.634c-3.583-7.718-14.565-7.718-18.148 0z" fill="#4369fd"/><g fill="#2626bc"><path d="m450.792 102.755c11.143 0 20.208-9.065 20.208-20.209 0-11.143-9.065-20.208-20.208-20.208-9.415 0-17.323 6.48-19.557 15.208h-155.455v-3.621c0-6.153-5.006-11.159-11.158-11.159h-17.244c-6.152 0-11.158 5.006-11.158 11.159v3.621h-155.455c-2.234-8.728-10.142-15.208-19.557-15.208-11.143 0-20.208 9.065-20.208 20.208 0 11.144 9.065 20.209 20.208 20.209 9.415 0 17.323-6.481 19.557-15.209h115.113c-28.959 9.939-55.211 27.022-76.319 50.058-30.194 32.952-47.304 75.379-48.497 119.954h-3.695c-6.153 0-11.159 5.006-11.159 11.158v17.244c0 6.152 5.006 11.158 11.159 11.158h17.243c6.153 0 11.159-5.006 11.159-11.158v-17.244c0-6.152-5.006-11.158-11.159-11.158h-3.542c1.19-42.067 17.365-82.096 45.865-113.198 28.674-31.294 67.373-50.985 109.287-55.701v2.51c0 6.152 5.006 11.158 11.158 11.158h17.244c6.152 0 11.158-5.006 11.158-11.158v-2.51c41.913 4.716 80.611 24.408 109.285 55.7 28.5 31.104 44.676 71.132 45.866 113.2h-3.542c-6.153 0-11.159 5.006-11.159 11.158v17.244c0 6.152 5.006 11.158 11.159 11.158h17.243c6.153 0 11.159-5.006 11.159-11.158v-17.244c0-6.152-5.006-11.158-11.159-11.158h-3.695c-1.193-44.576-18.304-87.004-48.499-119.956-21.107-23.035-47.359-40.116-76.317-50.056h115.113c2.235 8.727 10.143 15.208 19.558 15.208zm-365.022 165.961v17.244c0 .639-.52 1.158-1.159 1.158h-17.244c-.64 0-1.159-.52-1.159-1.158v-17.244c0-.639.52-1.158 1.159-1.158h17.243c.64 0 1.16.519 1.16 1.158zm360.022 0v17.244c0 .639-.52 1.158-1.159 1.158h-17.243c-.64 0-1.159-.52-1.159-1.158v-17.244c0-.639.52-1.158 1.159-1.158h17.243c.639 0 1.159.519 1.159 1.158zm5-196.378c5.629 0 10.208 4.579 10.208 10.208s-4.579 10.209-10.208 10.209-10.209-4.58-10.209-10.209 4.58-10.208 10.209-10.208zm-389.584 20.417c-5.629 0-10.208-4.58-10.208-10.209s4.579-10.208 10.208-10.208 10.209 4.579 10.209 10.208-4.58 10.209-10.209 10.209zm204.572-1.587c0 .639-.52 1.158-1.158 1.158h-17.244c-.639 0-1.158-.52-1.158-1.158v-17.243c0-.64.52-1.159 1.158-1.159h17.244c.639 0 1.158.52 1.158 1.159z"/><path d="m384.027 308.031-23.125-6.585c-2.392-8.725-5.86-17.096-10.341-24.954l11.703-21.022c2.182-3.932 1.486-8.898-1.692-12.079l-17.686-17.685c-3.18-3.179-8.147-3.877-12.085-1.689l-21.017 11.7c-5.657-3.224-11.61-5.933-17.752-8.089v-45.281c0-3.62-.807-7.268-2.332-10.55l-20.088-43.2c-2.491-5.355-7.706-8.682-13.612-8.682-5.905.001-11.12 3.327-13.609 8.682l-20.089 43.201c-1.525 3.281-2.332 6.929-2.332 10.549v45.278c-6.145 2.156-12.097 4.867-17.756 8.093l-21.022-11.704c-3.932-2.182-8.901-1.487-12.079 1.693l-17.687 17.686c-3.178 3.18-3.873 8.146-1.688 12.085l11.699 21.016c-4.48 7.858-7.949 16.229-10.341 24.954l-23.124 6.584c-4.331 1.232-7.356 5.239-7.356 9.744v25.007c0 4.504 3.025 8.511 7.355 9.742l23.125 6.586c2.392 8.725 5.86 17.095 10.341 24.953l-11.703 21.022c-2.182 3.932-1.486 8.898 1.692 12.079l17.686 17.686c3.18 3.179 8.147 3.879 12.085 1.688l21.017-11.699c7.858 4.48 16.229 7.949 24.954 10.341l6.584 23.124c1.232 4.331 5.239 7.356 9.744 7.356h25.006c4.505 0 8.512-3.025 9.743-7.355l6.585-23.125c8.725-2.392 17.096-5.86 24.954-10.341l21.021 11.702c3.932 2.186 8.901 1.489 12.081-1.691l17.687-17.687c3.178-3.18 3.873-8.146 1.688-12.084l-11.699-21.017c4.48-7.858 7.949-16.229 10.341-24.953l23.124-6.585c4.331-1.232 7.356-5.239 7.356-9.743v-25.007c0-4.505-3.026-8.512-7.356-9.744zm-128.029-91.032c-2.762 0-5 2.238-5 5v156.647c-24.47-2.512-43.623-23.246-43.623-48.369 0-12.101 4.6-23.737 12.596-32.606v48.788c0 2.762 2.238 5 5 5s5-2.238 5-5v-144.171c2.289.541 4.642.828 7.008.828 5.806 0 11.45-1.648 16.323-4.767 1.627-1.043 3.81-1.001 5.557.102 4.835 3.052 10.426 4.665 16.169 4.665 2.364 0 4.717-.287 7.006-.829v168.276c0 .242.038.473.071.705-6.222 3.976-13.396 6.587-21.106 7.378v-156.647c-.001-2.762-2.239-5-5.001-5zm36.035 80.623c8.08 8.868 12.592 20.371 12.592 32.655 0 12.538-4.771 23.981-12.592 32.613zm-40.573-164.809c1.25-2.688 3.792-2.897 4.542-2.897s3.293.209 4.543 2.898l9.227 19.843c-4.136 2.497-8.904 3.863-13.774 3.863-4.936 0-9.625-1.335-13.77-3.853zm-20.089 43.201 6.617-14.231c5.474 3.081 11.69 4.737 18.01 4.737 6.332 0 12.55-1.656 18.017-4.738l6.618 14.232c.916 1.97 1.4 4.16 1.4 6.333v9.529c-2.228.819-4.573 1.24-7.006 1.24-3.851 0-7.596-1.079-10.832-3.122-5.013-3.164-11.405-3.189-16.284-.067-3.26 2.087-7.041 3.189-10.933 3.189-2.398 0-4.775-.431-7.008-1.245v-9.525c.001-2.172.485-4.363 1.401-6.332zm150.012 166.767c0 .06-.036.108-.094.125l-25.876 7.369c-1.728.492-3.059 1.873-3.487 3.617-2.381 9.708-6.217 18.964-11.4 27.51-.932 1.536-.968 3.455-.093 5.024l13.088 23.51c.027.05.019.119-.019.157l-17.686 17.686c-.04.038-.107.046-.15.022l-23.516-13.092c-1.572-.875-3.488-.84-5.025.093-8.547 5.184-17.803 9.02-27.511 11.4-1.744.429-3.125 1.76-3.617 3.487l-7.369 25.877c-.016.057-.064.093-.125.093h-25.006c-.061 0-.109-.036-.126-.094l-7.368-25.876c-.492-1.728-1.873-3.059-3.617-3.487-9.708-2.381-18.964-6.217-27.511-11.4-1.536-.932-3.453-.968-5.025-.093l-23.511 13.09c-.051.027-.115.019-.155-.02l-17.685-17.685c-.038-.039-.047-.108-.023-.152l13.092-23.516c.875-1.569.839-3.488-.093-5.024-5.184-8.546-9.02-17.802-11.4-27.51-.429-1.744-1.76-3.125-3.487-3.617l-25.877-7.37c-.057-.016-.093-.064-.093-.124v-25.007c0-.061.036-.109.094-.126l25.876-7.368c1.728-.492 3.059-1.873 3.487-3.617 2.381-9.708 6.217-18.964 11.4-27.511.932-1.536.968-3.455.093-5.024l-13.088-23.51c-.027-.05-.019-.119.019-.157l17.686-17.685c.039-.037.108-.047.15-.023l23.516 13.092c1.572.875 3.489.838 5.025-.093 4.805-2.915 9.863-5.413 15.096-7.464v45.772c-14.166 11.069-22.596 28.216-22.596 46.217 0 32.326 26.299 58.625 58.625 58.625s58.625-26.299 58.625-58.625c0-18.226-8.232-35.026-22.592-46.225v-45.763c5.23 2.05 10.289 4.549 15.092 7.463 1.536.931 3.453.968 5.025.093l23.509-13.088c.05-.027.119-.021.157.021l17.685 17.683c.038.039.047.108.023.152l-13.092 23.516c-.875 1.569-.839 3.488.093 5.024 5.184 8.547 9.02 17.803 11.4 27.511.429 1.744 1.76 3.125 3.487 3.617l25.877 7.369c.057.016.093.064.093.125z"/><path d="m450.792 76.755c8.399 0 15.208-6.809 15.208-15.208s-6.809-15.208-15.208-15.208c-6.645 0-12.28 4.269-14.35 10.208h-165.662v-3.622c0-3.401-2.757-6.158-6.159-6.158h-17.244c-3.401 0-6.159 2.757-6.159 6.158v3.622h-165.66c-2.07-5.939-7.705-10.208-14.35-10.208-8.399-.001-15.208 6.808-15.208 15.207s6.809 15.208 15.208 15.208c6.645 0 12.28-4.269 14.35-10.209h128.134c-75.872 22.401-131.594 92.23-132.678 175.012h-3.648c-3.401 0-6.158 2.757-6.158 6.159v17.244c0 3.401 2.757 6.158 6.158 6.158h17.244c3.401 0 6.159-2.757 6.159-6.158v-17.244c0-3.401-2.757-6.159-6.159-6.159h-3.592c1.253-90.408 71.397-164.46 160.202-171.923v.534c0 3.401 2.757 6.159 6.159 6.159h17.244c3.401 0 6.159-2.757 6.159-6.159v-.534c88.805 7.462 158.949 81.514 160.201 171.923h-3.592c-3.401 0-6.158 2.757-6.158 6.159v17.244c0 3.401 2.757 6.158 6.158 6.158h17.244c3.401 0 6.158-2.757 6.158-6.158v-17.244c0-3.401-2.757-6.159-6.158-6.159h-3.648c-1.084-82.781-56.806-152.611-132.678-175.012h128.134c2.068 5.941 7.703 10.21 14.349 10.21z" opacity=".1"/></g><path d="m58.292 159.215c-2.762 0-5-2.238-5-5 0-3.306-2.689-5.995-5.995-5.995-2.762 0-5-2.238-5-5s2.238-5 5-5c3.306 0 5.995-2.689 5.995-5.995 0-2.762 2.238-5 5-5s5 2.238 5 5c0 3.306 2.689 5.995 5.995 5.995 2.762 0 5 2.238 5 5s-2.238 5-5 5c-3.306 0-5.995 2.689-5.995 5.995 0 2.762-2.238 5-5 5z" fill="#97ffd2"/><path d="m345.519 187.101c-2.762 0-5-2.238-5-5 0-3.306-2.689-5.995-5.996-5.995-2.762 0-5-2.238-5-5s2.238-5 5-5c3.307 0 5.996-2.689 5.996-5.995 0-2.762 2.238-5 5-5s5 2.238 5 5c0 3.306 2.689 5.995 5.995 5.995 2.762 0 5 2.238 5 5s-2.238 5-5 5c-3.306 0-5.995 2.689-5.995 5.995 0 2.761-2.239 5-5 5z" fill="#6583fe"/><path d="m101.764 437.987c-1.279 0-2.56-.488-3.535-1.465l-10.994-10.994c-1.953-1.952-1.953-5.118 0-7.07l10.994-10.994c1.951-1.953 5.119-1.953 7.07 0l10.994 10.994c1.953 1.952 1.953 5.118 0 7.07l-10.994 10.994c-.976.977-2.256 1.465-3.535 1.465zm-3.923-15.994 3.923 3.923 3.923-3.923-3.923-3.923z" fill="#ff7eb8"/><path d="m432.58 358.479c-1.279 0-2.56-.488-3.535-1.465l-10.994-10.994c-1.953-1.952-1.953-5.118 0-7.07l10.994-10.994c1.951-1.953 5.119-1.953 7.07 0l10.994 10.994c1.953 1.952 1.953 5.118 0 7.07l-10.994 10.994c-.975.976-2.256 1.465-3.535 1.465zm-3.923-15.995 3.923 3.923 3.923-3.923-3.923-3.923z" fill="#ff7eb8"/></g></svg>