<svg height="400pt" viewBox="-85 0 400 400" width="400pt" xmlns="http://www.w3.org/2000/svg"><path d="m49.800781 387.523438v-315.800782c0-17.730468 14.371094-32.101562 32.097657-32.101562h138.222656c-1.105469-16.875-15.113282-29.996094-32.023438-30h-146.199218c-17.726563 0-32.097657 14.371094-32.097657 32.101562v315.800782c0 17.726562 14.371094 32.097656 32.097657 32.097656h7.976562c-.042969-.695313-.074219-1.394532-.074219-2.097656zm0 0" fill="none"/><path d="m134.570312 362.863281h-39.140624c-5.523438 0-10-4.476562-10-10 0-5.523437 4.476562-10 10-10h39.140624c5.523438 0 10 4.476563 10 10 0 5.523438-4.476562 10-10 10zm0 0" fill="#fff"/><path d="m230 42.101562c0-23.253906-18.847656-42.101562-42.101562-42.101562h-145.796876c-23.253906 0-42.101562 18.847656-42.101562 42.101562v315.796876c0 23.253906 18.847656 42.101562 42.101562 42.101562h145.796876c23.253906 0 42.101562-18.847656 42.101562-42.101562zm-210 29.898438h190v234h-190zm21.898438-52h146.203124c11.945313-.148438 21.75 9.421875 21.898438 21.367188v.355468 10.277344h-190v-10.277344c-.046875-11.949218 9.597656-21.675781 21.546875-21.722656zm146.203124 360h-146.203124c-12.183594 0-21.898438-10.292969-21.898438-22.476562v-31.523438h190v31.523438c0 12.183593-9.714844 22.476562-21.898438 22.476562zm0 0" fill="#fff"/></svg>